<?xml version="1.0" encoding="UTF-8"?>
<!-- Generator: Adobe Illustrator 16.0.0, SVG Export Plug-In . SVG Version: 6.00 Build 0)  -->
<!DOCTYPE svg PUBLIC "-//W3C//DTD SVG 1.1//EN" "http://www.w3.org/Graphics/SVG/1.1/DTD/svg11.dtd">
<svg version="1.1" id="Layer_1" xmlns="http://www.w3.org/2000/svg" xmlns:xlink="http://www.w3.org/1999/xlink" x="0px" y="0px" width="213.016px" height="28.168px" viewBox="0 0 213.016 28.168" enable-background="new 0 0 213.016 28.168" xml:space="preserve">
<rect x="-0.083" y="0.075" display="none" fill="#4F4F4F" width="213" height="28"/>
<g>
	<path fill-rule="evenodd" clip-rule="evenodd" fill="#FFFFFF" d="M14.042,0.042c7.755,0,14.042,6.287,14.042,14.043   c0,7.756-6.287,14.041-14.042,14.041S0,21.841,0,14.085C0,6.329,6.287,0.042,14.042,0.042L14.042,0.042z M21.957,14.163   c0.063-0.057,0.014,0.02,0.062-0.092l0.114-0.396c0.609-0.02,1.03-0.065,1.523-0.262l1.014-0.695   c-0.336-0.004-0.689,0.087-1.235,0.002l-1.107-0.231c0.091-0.059,0.232-0.06,0.361-0.079c0.133-0.021,0.248-0.038,0.378-0.068   c0.256-0.06,0.442-0.117,0.657-0.216l0.851-0.832c-0.388,0.152-0.739,0.217-1.264,0.223c-0.254,0.003-1.179-0.013-1.264-0.239   c-0.101-0.27-0.1-0.524-0.312-1.029c-0.135-0.322-0.302-0.63-0.49-0.906c-0.386-0.57-0.863-1.045-1.428-1.408l-2.331-0.653   c0.146-0.14,0.695-0.251,0.894-0.304c1.039-0.277,0.949-0.657,0.697-0.728c-0.321-0.09-1.104,0.205-1.455,0.312l0.628-0.666   c-0.653,0.062-1.081,0.388-1.57,0.688l0.204-0.5c-0.616,0.207-1.728,1.675-2.035,2.263l-1.305,2.861   c-0.111-0.046-0.882-0.837-1.472-1.188c-0.515-0.308-1.202-0.636-1.793-0.909C8.856,8.45,7.84,8.049,6.384,7.516   c-0.073,1.279,0.748,1.982,1.772,2.67L6.908,10.35c0.021,0.546,0.443,1.115,0.763,1.388c0.582,0.497,0.887,0.499,1.421,0.701   l0.11,0.057c-0.861,0.149-0.604,0.054-1.352,0.538c0.009,0.341,0.75,1.065,1.309,1.188l1.245,0.162   c-0.086,0.08-0.221,0.135-0.322,0.199c-0.127,0.082-0.18,0.131-0.271,0.24c-0.172,0.209-0.261,0.445-0.148,0.732l1.441,0.656   c-0.077,0.154-0.547,0.531-0.706,0.641c-0.862,0.598-1.832,1.018-3.067,1.072c-0.878,0.039-1.728-0.129-2.399-0.398   c-0.774-0.309-1.091-0.568-1.682-1.023c0.173,0.297,0.566,0.709,0.806,0.963c2.259,2.396,5.915,3.719,9.736,3.037   c2.333-0.416,3.836-1.223,5.203-2.221c0.225-0.164,0.762-0.646,0.955-0.846c0.594-0.611,1.123-1.268,1.509-2.025   C21.574,15.183,21.975,14.394,21.957,14.163L21.957,14.163z"/>
	<path fill-rule="evenodd" clip-rule="evenodd" fill="#FFFFFF" d="M88.015,0.042c7.755,0,14.042,6.287,14.042,14.043   c0,7.756-6.287,14.041-14.042,14.041s-14.042-6.285-14.042-14.041C73.973,6.329,80.259,0.042,88.015,0.042L88.015,0.042z    M85.935,14.095c0.041,0.051,0.018,0.408,0.018,0.477l0.002,7.559h3.277c0.02-1.99,0-4.031,0-6.031   c0-0.027-0.006-1.936,0.002-1.977c0.006-0.025,0.007-0.021,0.014-0.033c0.004,0,2.085,0.018,2.158,0l0.037-0.012l0.288-2.758   h-2.487c-0.01-0.407,0.002-0.826,0.002-1.235c0-0.373-0.008-0.833,0.213-1.038l2.259-0.228L91.715,6.05   c-0.428-0.025-0.935-0.002-1.371-0.002c-0.454,0-0.914-0.01-1.359,0.021c-0.851,0.056-1.538,0.31-2.035,0.732   c-0.72,1.154-0.999,0.163-1.004,4.519l-1.646,0.001l0.003,2.772L85.935,14.095L85.935,14.095z"/>
	<g>
		<path fill="#FFFFFF" d="M198.682,11.373c2.563-0.03,2.533-4.102-0.208-3.909C195.877,7.646,196.069,11.405,198.682,11.373z"/>
		<path fill="#FFFFFF" d="M198.974,0.042c-7.756,0-14.043,6.287-14.043,14.043c0,7.756,6.287,14.041,14.043,14.041    c7.755,0,14.042-6.285,14.042-14.041C213.016,6.329,206.729,0.042,198.974,0.042z M193.847,8.603    c0.436-2.875,3.213-4.307,5.565-3.905c2.771,0.474,4.278,3.021,3.944,5.368C202.453,16.423,192.885,14.935,193.847,8.603z     M203.584,22.642c-0.938,0.953-1.938,0.076-2.666-0.625c-0.626-0.604-1.378-1.357-2.033-1.871c-1.71,1.803-3.099,3.967-4.502,2.77    c-1.683-1.438,1.621-3.543,2.427-4.783c-0.84-0.188-2.253-0.643-2.917-1.148c-0.667-0.508-0.79-1.676,0.016-2.254    c0.966-0.694,1.614,0.07,2.755,0.439c4.319,1.391,5.991-2.505,7.27-0.223c1.09,1.947-2.619,2.809-3.063,3.109    C202.653,19.761,204.937,21.267,203.584,22.642z"/>
	</g>
	<g>
		<path fill-rule="evenodd" clip-rule="evenodd" fill="#FFFFFF" d="M124.94,16.926c1.582-0.003,2.848-1.28,2.835-2.864    c-0.012-1.584-1.295-2.853-2.869-2.84c-1.557,0.014-2.815,1.29-2.813,2.853C122.093,15.665,123.357,16.93,124.94,16.926z"/>
		<path fill-rule="evenodd" clip-rule="evenodd" fill="#FFFFFF" d="M125.266,18.688c-1.292,0.088-2.446-0.297-3.405-1.172    c-1.34-1.224-1.764-2.766-1.433-4.537c-0.418,0-0.798,0-1.197,0c-0.012,0.089-0.025,0.155-0.025,0.223    c-0.001,1.972-0.005,3.941,0.001,5.912c0.001,0.499,0.201,0.682,0.73,0.683c3.331,0.005,6.661,0.005,9.993-0.001    c0.565,0,0.723-0.176,0.724-0.764c0.001-1.888,0-3.775,0-5.662c0-0.132,0-0.265,0-0.399c-0.438,0-0.811,0-1.214,0    C130.056,16.254,127.728,18.518,125.266,18.688z"/>
		<path fill-rule="evenodd" clip-rule="evenodd" fill="#FFFFFF" d="M124.93,0c-7.716,0-13.972,6.306-13.972,14.084    s6.256,14.084,13.972,14.084s13.972-6.306,13.972-14.084S132.646,0,124.93,0z M132.421,19.694c0,1.129-0.702,1.866-1.833,1.87    c-3.774,0.012-7.549,0.012-11.323-0.002c-1.114-0.005-1.818-0.719-1.821-1.84c-0.012-3.761-0.011-7.521-0.001-11.281    c0.003-1.149,0.738-1.846,1.897-1.847c1.859-0.001,3.72,0,5.577,0c1.875,0,3.747-0.001,5.62,0    c1.155,0.001,1.883,0.714,1.884,1.859C132.426,12.2,132.426,15.947,132.421,19.694z"/>
		<path fill-rule="evenodd" clip-rule="evenodd" fill="#FFFFFF" d="M128.422,11.181c0.265,0.005,0.526,0.001,0.788,0    c0.277,0,0.555,0.002,0.83,0c0.384-0.005,0.601-0.203,0.608-0.584c0.014-0.554,0.014-1.106,0-1.659    c-0.007-0.357-0.203-0.566-0.572-0.571c-0.553-0.007-1.106-0.005-1.66,0c-0.362,0.002-0.572,0.187-0.578,0.557    c-0.007,0.567-0.01,1.134,0.001,1.702C127.847,10.993,128.063,11.172,128.422,11.181z"/>
	</g>
	<g>
		<path fill-rule="evenodd" clip-rule="evenodd" fill="#FFFFFF" d="M159.887,11.487c0.177-0.4,0.251-0.818,0.254-1.255    c-0.038-1.088-0.379-2.047-1.215-2.786c-0.392-0.345-0.848-0.558-1.383-0.51c-0.692,0.062-1.125,0.484-1.393,1.091    c-0.273,0.62-0.312,1.27-0.182,1.93c0.175,0.895,0.564,1.67,1.312,2.226C158.252,12.904,159.397,12.593,159.887,11.487z"/>
		<path fill-rule="evenodd" clip-rule="evenodd" fill="#FFFFFF" d="M160.081,16.456c-0.741-0.363-1.531-0.463-2.342-0.359    c-0.83,0.104-1.582,0.4-2.2,0.986c-0.969,0.916-0.938,2.211,0.088,3.062c0.692,0.576,1.52,0.768,2.4,0.777    c0.052,0,0.104,0.002,0.157,0c0.974-0.049,1.864-0.326,2.582-1.014c0.599-0.574,0.884-1.266,0.612-2.096    C161.165,17.161,160.677,16.747,160.081,16.456z"/>
		<path fill-rule="evenodd" clip-rule="evenodd" fill="#FFFFFF" d="M161.917,0.001c-7.717,0-13.973,6.306-13.973,14.084    c0,7.777,6.256,14.082,13.973,14.082c7.715,0,13.971-6.305,13.971-14.082C175.888,6.307,169.632,0.001,161.917,0.001z     M161.375,21.017c-0.731,0.482-1.54,0.756-2.397,0.883c-1.221,0.182-2.433,0.15-3.614-0.24c-0.823-0.273-1.549-0.699-1.975-1.498    c-0.598-1.123-0.513-2.904,1.014-3.805c0.786-0.463,1.638-0.705,2.53-0.814c0.478-0.059,0.96-0.07,1.44-0.105    c0.034-0.002,0.067-0.006,0.111-0.012c-0.011-0.289-0.108-0.531-0.341-0.693c-0.19-0.133-0.252-0.303-0.244-0.521    c0.009-0.256,0.002-0.51,0.002-0.809c-0.296,0-0.58,0.021-0.859-0.004c-0.754-0.066-1.451-0.289-2.044-0.788    c-0.461-0.39-0.742-0.886-0.884-1.465c-0.193-0.789-0.188-1.578,0.069-2.352c0.292-0.877,0.898-1.493,1.698-1.923    c0.897-0.481,1.862-0.702,2.877-0.705c1.319-0.004,2.638-0.001,3.957-0.001c0.046,0,0.092,0,0.146,0    c0.008,0.171-0.094,0.265-0.222,0.303c-0.277,0.082-0.56,0.146-0.841,0.207c-0.254,0.055-0.513,0.091-0.768,0.144    c-0.061,0.013-0.112,0.064-0.187,0.109c0.059,0.043,0.088,0.071,0.122,0.088c0.627,0.299,0.977,0.803,1.081,1.48    c0.099,0.628,0.133,1.259,0.035,1.89c-0.104,0.672-0.442,1.216-0.93,1.672c-0.267,0.25-0.549,0.483-0.824,0.725    c-0.026,0.022-0.053,0.045-0.078,0.069c-0.492,0.46-0.513,0.895-0.025,1.355c0.412,0.393,0.864,0.742,1.288,1.121    c0.488,0.438,0.908,0.926,1.153,1.549C163.164,18.138,162.815,20.065,161.375,21.017z M170.789,9.99    c-0.947,0.003-1.894,0.005-2.84,0.008c-0.378,0.001-0.329-0.033-0.329,0.322c-0.003,0.848-0.001,1.696,0,2.545    c0,0.062,0,0.126,0,0.202c-0.202,0-0.384,0-0.6,0c0-0.14,0-0.276,0-0.413c0.001-0.819-0.001-1.639,0.006-2.457    c0.002-0.152-0.04-0.201-0.194-0.2c-0.877,0.006-1.755,0.003-2.632,0.002c-0.085,0-0.169,0-0.265,0c0-0.263,0-0.499,0-0.759    c1.02,0,2.039,0,3.081,0c0-0.996,0-1.969,0-2.953c0.207,0,0.391,0,0.592,0c0.005,0.085,0.012,0.164,0.012,0.242    c0,0.837,0.003,1.674-0.005,2.51c-0.001,0.151,0.039,0.2,0.194,0.199c0.959-0.006,1.918-0.003,2.876-0.004    c0.034,0,0.069-0.007,0.104-0.011C170.789,9.479,170.789,9.734,170.789,9.99z"/>
	</g>
	<path fill-rule="evenodd" clip-rule="evenodd" fill="#FFFFFF" d="M50.958,0c-7.716,0-13.972,6.306-13.972,14.084   s6.255,14.084,13.972,14.084c7.715,0,13.972-6.306,13.972-14.084S58.673,0,50.958,0z M57.3,16.842   c1.194,1.1,2.027,1.994,2.498,2.686c0.22,0.346,0.291,0.652,0.212,0.919c-0.079,0.268-0.26,0.401-0.542,0.401l-3.111,0.141   c-0.44,0.032-0.974-0.235-1.602-0.801s-1.053-1.037-1.272-1.414c-0.126-0.22-0.354-0.346-0.684-0.377   c-0.33-0.031-0.542,0.126-0.636,0.472l-0.094,1.225c-0.031,0.252-0.126,0.44-0.283,0.565c-0.157,0.126-0.291,0.197-0.4,0.213   c-0.11,0.016-0.291,0.039-0.542,0.07c-0.817,0.031-1.532-0.008-2.145-0.118c-0.613-0.109-1.17-0.337-1.673-0.683   c-0.503-0.346-0.903-0.66-1.202-0.943c-0.298-0.282-0.73-0.738-1.296-1.366c-1.539-2.199-2.686-4.101-3.44-5.702   c-0.283-0.629-0.44-1.163-0.472-1.603c0.126-0.126,0.362-0.204,0.708-0.235c0.346-0.032,0.848-0.04,1.508-0.024   c0.66,0.017,1.052,0.024,1.178,0.024c0.314-0.032,0.566,0.141,0.754,0.518c0.785,1.76,1.555,3.126,2.309,4.101   c0.503,0.471,0.833,0.393,0.99-0.236c0.063,0,0.095-0.77,0.095-2.309c0.031-0.975-0.362-1.587-1.178-1.838   c0.188-0.503,0.848-0.754,1.979-0.754c0.283,0,0.628,0.015,1.037,0.047c0.408,0.031,0.628,0.047,0.659,0.047   c0.943,0,1.415,0.377,1.415,1.131c0,0.095-0.016,0.323-0.047,0.684c-0.032,0.361-0.055,0.707-0.071,1.037s-0.023,0.675-0.023,1.037   c0,0.36,0.047,0.667,0.142,0.919c0.094,0.251,0.22,0.408,0.377,0.471c0.172-0.125,0.338-0.243,0.494-0.354   c0.158-0.109,0.323-0.29,0.496-0.542c0.173-0.251,0.306-0.439,0.4-0.565c0.094-0.126,0.235-0.361,0.424-0.707   c0.188-0.346,0.298-0.565,0.33-0.66c0.031-0.094,0.141-0.337,0.33-0.729c0.188-0.394,0.283-0.59,0.283-0.59l0.07-0.142   c0.125-0.282,0.228-0.447,0.307-0.494s0.275-0.07,0.589-0.07h2.922c0.346,0,0.55,0.008,0.613,0.023s0.158,0.086,0.283,0.212   c0.22,0.282,0.024,0.896-0.589,1.838s-1.202,1.728-1.768,2.356C56.845,15.601,56.735,16.307,57.3,16.842z"/>
</g>
</svg>